<svg width="48" height="48" viewBox="0 0 48 48" fill="none" xmlns="http://www.w3.org/2000/svg">
<rect width="48" height="48" fill="#E743CC"/>
<path d="M10.336 25V24.832C10.624 24.832 10.792 24.7787 10.84 24.672V20.648C10.792 20.5413 10.624 20.488 10.336 20.488V20.32H11.504L13.208 24.04L14.912 20.32H16.096V20.488C15.808 20.488 15.64 20.5413 15.592 20.648V24.672C15.64 24.7787 15.808 24.832 16.096 24.832V25H14.352V24.832C14.64 24.832 14.808 24.7787 14.856 24.672V21.08L13.064 25H12.944L11.112 21.032V24.672C11.16 24.7787 11.328 24.832 11.616 24.832V25H10.336ZM16.7657 25V24.832C17.0537 24.832 17.2217 24.7787 17.2697 24.672V20.648C17.2217 20.5413 17.0537 20.488 16.7657 20.488V20.32H18.5097V20.488C18.2217 20.488 18.0537 20.5413 18.0057 20.648V24.672C18.0537 24.7787 18.2217 24.832 18.5097 24.832V25H16.7657ZM21.5478 24.808C21.9051 24.808 22.2038 24.6587 22.4438 24.36C22.6891 24.0613 22.8118 23.6667 22.8118 23.176V20.648C22.7638 20.5413 22.5958 20.488 22.3078 20.488V20.32H23.5878V20.488C23.2998 20.488 23.1318 20.5413 23.0838 20.648V23.016C23.0838 23.7093 22.9291 24.2267 22.6198 24.568C22.3158 24.9093 21.9318 25.08 21.4678 25.08C20.1878 25.08 19.5478 24.392 19.5478 23.016V20.648C19.4998 20.5413 19.3318 20.488 19.0438 20.488V20.32H20.7878V20.488C20.4998 20.488 20.3318 20.5413 20.2838 20.648V23.128C20.2838 23.656 20.4011 24.0693 20.6358 24.368C20.8704 24.6613 21.1744 24.808 21.5478 24.808ZM26.0469 25V24.832C26.3349 24.832 26.5029 24.7787 26.5509 24.672V20.648C26.5029 20.5413 26.3349 20.488 26.0469 20.488V20.32H27.2149L28.9189 24.04L30.6229 20.32H31.8069V20.488C31.5189 20.488 31.3509 20.5413 31.3029 20.648V24.672C31.3509 24.7787 31.5189 24.832 31.8069 24.832V25H30.0629V24.832C30.3509 24.832 30.5189 24.7787 30.5669 24.672V21.08L28.7749 25H28.6549L26.8229 21.032V24.672C26.8709 24.7787 27.0389 24.832 27.3269 24.832V25H26.0469ZM32.4766 25V24.832C32.7646 24.832 32.9326 24.7787 32.9806 24.672V20.648C32.9326 20.5413 32.7646 20.488 32.4766 20.488V20.32H34.2206V20.488C33.9326 20.488 33.7646 20.5413 33.7166 20.648V24.672C33.7646 24.7787 33.9326 24.832 34.2206 24.832V25H32.4766ZM37.2587 24.808C37.616 24.808 37.9147 24.6587 38.1547 24.36C38.4 24.0613 38.5227 23.6667 38.5227 23.176V20.648C38.4747 20.5413 38.3067 20.488 38.0187 20.488V20.32H39.2987V20.488C39.0107 20.488 38.8427 20.5413 38.7947 20.648V23.016C38.7947 23.7093 38.64 24.2267 38.3307 24.568C38.0267 24.9093 37.6427 25.08 37.1787 25.08C35.8987 25.08 35.2587 24.392 35.2587 23.016V20.648C35.2107 20.5413 35.0427 20.488 34.7547 20.488V20.32H36.4987V20.488C36.2107 20.488 36.0427 20.5413 35.9947 20.648V23.128C35.9947 23.656 36.112 24.0693 36.3467 24.368C36.5814 24.6613 36.8854 24.808 37.2587 24.808Z" fill="#ECF018"/>
</svg>
