<?xml version="1.0" encoding="utf-8"?>
<!-- Generator: Adobe Illustrator 25.2.1, SVG Export Plug-In . SVG Version: 6.00 Build 0)  -->
<svg version="1.1" id="Layer_1" xmlns="http://www.w3.org/2000/svg" xmlns:xlink="http://www.w3.org/1999/xlink" x="0px" y="0px"
	 viewBox="0 0 580 485" style="enable-background:new 0 0 580 485;" widtH="580" height="485" xml:space="preserve">
<style type="text/css">
	.st0{fill:#FFFFFF;}
	.st1{fill:#E7E3DA;}
</style>
<rect class="st0" width="580" height="485"/>
<rect class="st1" width="580" height="485"/>
<path fill="#EAEAEA" class="st2" d="M311.1,240.4c-0.1-4.1-3.5-7.4-7.6-7.4c-0.1,0-0.3,0-0.4,0c-4,0.1-7.1,3.5-7,7.5v10h5.2v-10v-0.1
	c0-1.2,1.1-2.2,2.3-2.2c1.3,0,2.3,1,2.3,2.3v10.1h5.2v-10C311.1,240.5,311.1,240.5,311.1,240.4z M321,240.6c0-4.2-3.4-7.6-7.6-7.6
	c-1,0-2,0.2-2.9,0.5c1.3,1.3,2.2,2.9,2.6,4.6h0.4c1.3,0,2.3,1,2.3,2.3v10.1h5.2V240.6z M325.8,250.6h5.2v-16.2h-5.2V250.6z
	 M342.2,252v-5.4c-0.7-0.4-1.2-1.2-1.3-2v-10.2h-5.2v10.1C335.7,248.3,338.5,251.4,342.2,252z M344.3,251.9v-5.3
	c0.8-0.4,1.3-1.2,1.3-2v-10.2h5.3v10.1C350.8,248.3,348,251.4,344.3,251.9z M245.1,240.4c0-4.1-3.4-7.4-7.5-7.4h-0.1
	c-4.1,0-7.5,3.3-7.5,7.5v10h5.3v-10c0-1.2,1-2.3,2.2-2.3c1.3,0,2.3,1,2.3,2.3v10.1h5.3v-10C245.1,240.5,245.1,240.5,245.1,240.4z
	 M247.5,233c4.2,0,7.6,3.4,7.6,7.6v10h-5.3v-10.1c0-1.3-1.1-2.3-2.3-2.3h-0.3c-0.4-1.7-1.3-3.4-2.6-4.6
	C245.6,233.2,246.6,233,247.5,233z M265,250.6h-5.2v-16.2h5.2V250.6z M276.4,246.5v5.5c-3.7-0.5-6.5-3.7-6.5-7.5v-10.1h5.1v10.1
	C275,245.4,275.6,246.2,276.4,246.5z M278.4,246.5v5.3c3.7-0.5,6.5-3.7,6.4-7.4v-10h-5.2v10.1C279.7,245.4,279.2,246.1,278.4,246.5z
	">
	<animate attributeName="fill" values="#D9D4C9;#e7e3da;#D9D4C9;" dur="2s" repeatCount="indefinite"/></path>
</svg>
