<?xml version="1.0" encoding="UTF-8"?>
<svg width="24px" height="24px" viewBox="0 0 24 24" version="1.1" xmlns="http://www.w3.org/2000/svg" xmlns:xlink="http://www.w3.org/1999/xlink" style="background: #FFFFFF;">
    <title>- Sign in</title>
    <g id="--Sign-in" stroke="none" stroke-width="1" fill="none" fill-rule="evenodd">
        <rect fill="#FFFFFF" x="0" y="0" width="24" height="24"></rect>
        <path d="M2,21.0626906 L2,21.4166667 L21.5,21.4166667 L21.5,21.0626906 C21.5,16.3873747 18.1875923,12.4738154 13.7867884,11.5345989 C15.2543526,10.7888893 16.2648376,9.26773618 16.2648376,7.51295883 C16.2648376,5.02474309 14.2396179,3 11.7507083,3 C9.26132649,3 7.23610674,5.02427112 7.23610674,7.51295883 C7.23610674,9.26820814 8.24659176,10.7888893 9.71462818,11.5345989 C5.31240768,12.4738154 2,16.3869028 2,21.0626906 Z M7.94391844,7.51295883 C7.94391844,5.41506069 9.65135482,3.70795213 11.7502361,3.70795213 C13.8486452,3.70795213 15.5560816,5.41458873 15.5560816,7.51295883 C15.5560816,9.61038501 13.8486452,11.3174936 11.7502361,11.3174936 C9.65135482,11.3170216 7.94391844,9.61038501 7.94391844,7.51295883 Z M11.7502361,12.0249737 C16.6170908,12.0249737 20.5981185,15.8889764 20.7846333,20.7082426 L2.71536673,20.7082426 C2.90188149,15.8889764 6.88290917,12.0249737 11.7502361,12.0249737 Z" id="Shape" fill="#1B1B1B" fill-rule="nonzero"></path>
    </g>
</svg>