<svg width="150" height="43" viewBox="0 0 150 43" fill="none" xmlns="http://www.w3.org/2000/svg">
<rect x="0.5" y="0.5" width="149" height="42" fill="#B83162"/>
<rect x="0.5" y="0.5" width="149" height="42" stroke="white"/>
<path d="M38.688 6.536H41.344V35.496H38.688V6.536ZM30.208 9.672H32.832C32.832 11.7627 32.576 13.7787 32.064 15.72C31.5733 17.6613 30.7947 19.5067 29.728 21.256C28.6613 22.984 27.2747 24.5947 25.568 26.088C23.8613 27.5813 21.792 28.9147 19.36 30.088L17.952 27.944C20.7467 26.6 23.0507 25.032 24.864 23.24C26.6773 21.448 28.0213 19.4533 28.896 17.256C29.7707 15.0373 30.208 12.648 30.208 10.088V9.672ZM19.296 9.672H31.328V11.816H19.296V9.672ZM48.2855 26.312H50.5575C52.3282 26.312 53.9495 26.2907 55.4215 26.248C56.8935 26.2053 58.3122 26.12 59.6775 25.992C61.0642 25.864 62.4828 25.672 63.9335 25.416L64.1895 27.592C62.7175 27.848 61.2775 28.0507 59.8695 28.2C58.4615 28.328 57.0002 28.4133 55.4855 28.456C53.9922 28.4987 52.3495 28.52 50.5575 28.52H48.2855V26.312ZM48.2855 9.16H61.7575V11.368H50.9415V27.08H48.2855V9.16ZM50.2695 17.288H61.1175V19.432H50.2695V17.288ZM66.6215 6.536H69.2775V35.496H66.6215V6.536ZM68.6695 18.152H74.0135V20.392H68.6695V18.152ZM97.659 6.536H100.283V35.528H97.659V6.536ZM90.043 17.288H98.427V19.464H90.043V17.288ZM77.627 8.808H80.283V16.328H88.315V8.808H90.907V28.232H77.627V8.808ZM80.283 18.44V26.056H88.315V18.44H80.283ZM105.881 22.568H132.057V24.712H105.881V22.568ZM109.273 32.68H129.305V34.856H109.273V32.68ZM109.273 26.824H111.897V33.48H109.273V26.824ZM109.337 17.8H128.985V19.88H109.337V17.8ZM109.337 7.624H128.825V9.704H111.993V18.6H109.337V7.624ZM111.193 12.68H128.057V14.728H111.193V12.68Z" fill="black"/>
</svg>
