<svg width="121" height="43" viewBox="0 0 121 43" fill="none" xmlns="http://www.w3.org/2000/svg">
<rect x="0.5" y="0.5" width="120" height="42" fill="#B83162"/>
<rect x="0.5" y="0.5" width="120" height="42" stroke="white"/>
<path d="M17.6 29.704H43.84V31.912H17.6V29.704ZM29.344 23.528H31.968V30.632H29.344V23.528ZM20.8 8.68H40.576V17.448H23.488V23.24H20.864V15.336H37.952V10.856H20.8V8.68ZM20.864 22.12H41.248V24.296H20.864V22.12ZM49.8855 9.608H68.5095V11.784H49.8855V9.608ZM47.0375 29.064H73.1815V31.272H47.0375V29.064ZM67.0695 9.608H69.6935V12.52C69.6935 13.736 69.6722 15.0373 69.6295 16.424C69.6082 17.7893 69.5228 19.304 69.3735 20.968C69.2242 22.632 68.9682 24.5093 68.6055 26.6L65.9175 26.312C66.3015 24.3493 66.5682 22.5467 66.7175 20.904C66.8882 19.2613 66.9842 17.7467 67.0055 16.36C67.0482 14.9733 67.0695 13.6933 67.0695 12.52V9.608ZM97.531 6.568H100.187V27.688H97.531V6.568ZM81.595 32.68H101.083V34.856H81.595V32.68ZM81.595 25.544H84.251V33.416H81.595V25.544ZM84.667 8.584C86.1177 8.584 87.4083 8.88267 88.539 9.48C89.6697 10.0773 90.5657 10.92 91.227 12.008C91.8883 13.0747 92.219 14.3013 92.219 15.688C92.219 17.0747 91.8883 18.312 91.227 19.4C90.5657 20.4667 89.6697 21.3093 88.539 21.928C87.4083 22.5253 86.1177 22.824 84.667 22.824C83.2377 22.824 81.947 22.5253 80.795 21.928C79.6643 21.3093 78.7683 20.4667 78.107 19.4C77.4457 18.312 77.115 17.0747 77.115 15.688C77.115 14.3013 77.4457 13.0747 78.107 12.008C78.7683 10.92 79.6643 10.0773 80.795 9.48C81.947 8.88267 83.2377 8.584 84.667 8.584ZM84.667 10.888C83.7283 10.888 82.8857 11.0907 82.139 11.496C81.3923 11.9013 80.795 12.4667 80.347 13.192C79.9203 13.9173 79.707 14.7493 79.707 15.688C79.707 16.648 79.9203 17.4907 80.347 18.216C80.795 18.92 81.3923 19.4747 82.139 19.88C82.8857 20.2853 83.7283 20.488 84.667 20.488C85.6057 20.488 86.4483 20.2853 87.195 19.88C87.963 19.4747 88.5603 18.92 88.987 18.216C89.4137 17.4907 89.627 16.648 89.627 15.688C89.627 14.7493 89.4137 13.9173 88.987 13.192C88.5603 12.4667 87.963 11.9013 87.195 11.496C86.4483 11.0907 85.6057 10.888 84.667 10.888Z" fill="black"/>
</svg>
