<svg width="100" height="100" viewBox="0 0 100 100" fill="none" xmlns="http://www.w3.org/2000/svg">
<rect width="100" height="100" fill="white"/>
<path d="M15.11 42.665C16.0027 42.665 16.7913 42.8817 17.476 43.315C18.1693 43.7397 18.7023 44.3333 19.075 45.096C19.4563 45.8587 19.647 46.721 19.647 47.683C19.647 48.671 19.3567 49.5853 18.776 50.426C18.204 51.258 17.489 51.921 16.631 52.415C15.7817 52.9003 14.967 53.143 14.187 53.143C13.7883 53.143 13.3853 53.1213 12.978 53.078C12.3107 53.0347 11.795 53.013 11.431 53.013H9.78V52.61L11.002 51.648V43.744L9.65 43.302L9.91 42.782H11.418C12.2413 42.782 13.043 42.756 13.823 42.704C14.4123 42.6693 14.8413 42.652 15.11 42.652V42.665ZM14.551 52.181C15.175 52.181 15.7427 52.0163 16.254 51.687C16.7653 51.349 17.164 50.8853 17.45 50.296C17.7447 49.698 17.892 49.0307 17.892 48.294C17.892 47.41 17.7533 46.6083 17.476 45.889C17.1987 45.161 16.774 44.5803 16.202 44.147C15.6387 43.7137 14.9367 43.497 14.096 43.497C13.5673 43.497 13.0777 43.653 12.627 43.965V51.856C13.1557 52.0727 13.797 52.181 14.551 52.181ZM25.2847 53H21.3327V52.597L22.5547 51.635V43.757L21.2027 43.302L21.4627 42.782H25.4147V43.185L24.1797 44.147V52.012L25.5447 52.48L25.2847 53ZM31.8835 48.021C32.4728 48.021 32.9365 47.8607 33.2745 47.54C33.6211 47.2193 33.7945 46.7773 33.7945 46.214C33.7945 45.4167 33.5908 44.7667 33.1835 44.264C32.7848 43.7527 32.1998 43.497 31.4285 43.497C30.8391 43.497 30.3018 43.666 29.8165 44.004V51.934L31.8315 52.493L31.5715 53.013H26.9695V52.61L28.1915 51.648V43.744L26.8395 43.302L27.0995 42.782H28.6075C29.4481 42.782 30.2758 42.756 31.0905 42.704C31.6971 42.6693 32.1435 42.652 32.4295 42.652C33.0361 42.652 33.5735 42.782 34.0415 43.042C34.5181 43.2933 34.8865 43.6443 35.1465 44.095C35.4065 44.5457 35.5365 45.044 35.5365 45.59C35.5365 46.1967 35.3155 46.7687 34.8735 47.306C34.4315 47.8433 33.8681 48.2637 33.1835 48.567C32.4988 48.8703 31.8271 49.0047 31.1685 48.97L30.5575 48.528L30.8175 48.008H31.8705L31.8835 48.021ZM46.2263 45.798L45.8363 45.928L44.1073 43.367H42.5213V52.012L43.8863 52.48L43.6263 53H39.6743V52.597L40.8963 51.635V43.367H39.3493L37.6203 45.928L37.2303 45.798V42.548L37.9323 42.782H45.5243L46.2263 42.548V45.798ZM53.1297 52.012L54.4947 52.48L54.2347 53H50.2827V52.597L51.5047 51.635V49.321L48.1637 43.926L47.1367 43.302L47.3967 42.782H51.3487V43.185L50.1397 44.121L52.7397 48.346L55.4437 44.121L53.3637 43.302L53.6237 42.782H57.5757V43.185L56.5097 43.835L53.1297 49.126V52.012ZM71.3393 55.47C69.9873 56.1113 69.0556 56.432 68.5443 56.432C68.2236 56.432 67.7296 56.0897 67.0623 55.405C66.4036 54.729 65.6539 53.9013 64.8133 52.922C64.2326 53.1473 63.6779 53.26 63.1493 53.26C62.2306 53.26 61.4159 53.0433 60.7053 52.61C60.0033 52.168 59.4573 51.557 59.0673 50.777C58.6773 49.997 58.4823 49.113 58.4823 48.125C58.4823 47.111 58.7769 46.175 59.3663 45.317C59.9556 44.4503 60.6879 43.77 61.5633 43.276C62.4386 42.7733 63.2749 42.522 64.0723 42.522C64.9909 42.522 65.8013 42.743 66.5033 43.185C67.2139 43.627 67.7643 44.238 68.1543 45.018C68.5443 45.798 68.7393 46.682 68.7393 47.67C68.7393 48.6667 68.4533 49.5897 67.8813 50.439C67.3093 51.2883 66.5856 51.9687 65.7103 52.48C66.5249 53.0953 67.2876 53.65 67.9983 54.144C68.7176 54.638 69.1553 54.885 69.3113 54.885H71.0663L71.3393 55.47ZM60.2503 47.501C60.2503 48.3503 60.3846 49.1303 60.6533 49.841C60.9219 50.543 61.3293 51.1063 61.8753 51.531C62.4299 51.9557 63.1103 52.168 63.9163 52.168C64.4883 52.168 65.0083 52.0033 65.4763 51.674C65.9529 51.336 66.3256 50.8723 66.5943 50.283C66.8629 49.685 66.9973 49.0177 66.9973 48.281C66.9973 47.423 66.8629 46.643 66.5943 45.941C66.3256 45.2303 65.9183 44.667 65.3723 44.251C64.8263 43.8263 64.1459 43.614 63.3313 43.614C62.7593 43.614 62.2349 43.783 61.7583 44.121C61.2903 44.4503 60.9219 44.914 60.6533 45.512C60.3846 46.1013 60.2503 46.7643 60.2503 47.501ZM79.6945 44.147V48.97C79.6945 49.88 79.4735 50.66 79.0315 51.31C78.5982 51.96 78.0608 52.4497 77.4195 52.779C76.7782 53.0997 76.1498 53.26 75.5345 53.26C74.7632 53.26 74.0698 53.091 73.4545 52.753C72.8478 52.4063 72.3712 51.934 72.0245 51.336C71.6865 50.7293 71.5175 50.049 71.5175 49.295V43.757L70.1655 43.302L70.4255 42.782H74.3775V43.185L73.1425 44.147V48.671C73.1425 49.7717 73.4112 50.6297 73.9485 51.245C74.4945 51.8603 75.3178 52.168 76.4185 52.168C76.8258 52.168 77.2245 52.038 77.6145 51.778C78.0132 51.5093 78.3382 51.1193 78.5895 50.608C78.8495 50.0967 78.9795 49.4943 78.9795 48.801V43.978L77.6275 43.302L77.8875 42.782H80.9295V43.185L79.6945 44.147ZM89.9052 53H82.1052V52.597L83.3272 51.635V43.757L81.9752 43.302L82.2352 42.782H89.7752L90.4772 42.548V45.538L90.0872 45.668L88.5402 43.367H84.9522V47.488H86.9932L87.9422 45.824H88.3452V49.776L87.8252 50.036L87.0062 48.073H84.9522V52.415H88.4882L90.2172 49.854L90.6072 49.984V53.234L89.9052 53Z" fill="black"/>
</svg>
